<svg width="45" height="45" viewBox="0 0 45 45" fill="none" xmlns="http://www.w3.org/2000/svg">
<mask id="mask0_2_110" style="mask-type:alpha" maskUnits="userSpaceOnUse" x="0" y="0" width="45" height="45">
<rect width="44.3077" height="44.3077" fill="#D9D9D9"/>
</mask>
<g mask="url(#mask0_2_110)">
<path d="M9.23121 40.615C7.69275 40.615 6.38506 40.0765 5.30813 38.9996C4.23121 37.9227 3.69275 36.615 3.69275 35.0765V9.23036C3.69275 7.6919 4.23121 6.3842 5.30813 5.30728C6.38506 4.23036 7.69275 3.69189 9.23121 3.69189H35.0774C36.6158 3.69189 37.9235 4.23036 39.0005 5.30728C40.0774 6.3842 40.6158 7.6919 40.6158 9.23036V35.0765C40.6158 36.615 40.0774 37.9227 39.0005 38.9996C37.9235 40.0765 36.6158 40.615 35.0774 40.615H9.23121ZM9.23121 36.9227H35.0774C35.6005 36.9227 36.0386 36.7454 36.3918 36.391C36.7463 36.0378 36.9235 35.5996 36.9235 35.0765V9.23036C36.9235 8.70728 36.7463 8.26851 36.3918 7.91405C36.0386 7.56082 35.6005 7.3842 35.0774 7.3842H9.23121C8.70814 7.3842 8.26937 7.56082 7.91491 7.91405C7.56167 8.26851 7.38506 8.70728 7.38506 9.23036V35.0765C7.38506 35.5996 7.56167 36.0378 7.91491 36.391C8.26937 36.7454 8.70814 36.9227 9.23121 36.9227ZM11.0774 33.2304L18.462 25.8458L21.7851 29.1227L25.8466 23.9996L33.2312 33.2304H11.0774ZM14.7697 18.4611C13.7543 18.4611 12.8854 18.0993 12.1629 17.3756C11.4392 16.6531 11.0774 15.7842 11.0774 14.7688C11.0774 13.7534 11.4392 12.8845 12.1629 12.1621C12.8854 11.4384 13.7543 11.0765 14.7697 11.0765C15.7851 11.0765 16.6546 11.4384 17.3783 12.1621C18.1008 12.8845 18.462 13.7534 18.462 14.7688C18.462 15.7842 18.1008 16.6531 17.3783 17.3756C16.6546 18.0993 15.7851 18.4611 14.7697 18.4611Z" fill="#5A6B87"/>
</g>
</svg>
